<?xml version="1.0" standalone="no"?>
<!DOCTYPE svg PUBLIC "-//W3C//DTD SVG 20010904//EN"
 "http://www.w3.org/TR/2001/REC-SVG-20010904/DTD/svg10.dtd">
<svg version="1.0" xmlns="http://www.w3.org/2000/svg"
 width="180.000000pt" height="180.000000pt" viewBox="0 0 180.000000 180.000000"
 preserveAspectRatio="xMidYMid meet">
<metadata>
Created by potrace 1.11, written by Peter Selinger 2001-2013
</metadata>
<g transform="translate(0.000000,180.000000) scale(0.100000,-0.100000)"
fill="#000000" stroke="none">
<path d="M1100 1781 c-31 -10 -71 -20 -90 -24 l-35 -6 35 19 c48 26 19 25 -84
-5 -104 -30 -104 -30 -75 -4 13 11 19 18 14 16 -6 -3 -30 -8 -55 -12 -24 -4
-51 -10 -60 -14 -8 -5 -28 -11 -45 -15 -29 -6 -29 -6 -10 10 19 15 18 15 -20
9 -47 -8 -108 -45 -130 -79 -15 -23 -21 -102 -28 -344 -1 -34 -4 -41 -17 -37
-29 9 -51 -17 -52 -61 -1 -59 37 -124 72 -124 12 0 21 -17 33 -58 19 -68 50
-110 129 -175 l58 -49 0 -56 -1 -57 -168 -83 c-194 -96 -298 -162 -330 -208
-12 -17 -31 -56 -42 -85 -20 -51 -79 -296 -79 -325 0 -12 122 -14 790 -14
l791 0 -7 38 c-17 94 -73 301 -92 342 -35 76 -109 129 -352 249 -80 40 -151
76 -159 80 -11 5 -14 24 -13 66 1 54 4 61 34 84 103 81 131 117 153 201 8 31
17 46 31 48 62 12 106 127 66 175 -13 16 -28 17 -49 4 -11 -7 -16 45 -27 306
-3 59 -8 112 -11 117 -4 6 3 26 15 45 27 44 18 45 -83 10 -75 -27 -117 -37
-117 -29 0 2 21 18 47 34 53 34 44 36 -37 11z"/>
</g>
</svg>
